<?xml version="1.0" encoding="UTF-8"?>
<svg id="Layer_1" xmlns="http://www.w3.org/2000/svg" version="1.1" viewBox="0 0 2000 2000">
  <!-- Generator: Adobe Illustrator 30.2.1, SVG Export Plug-In . SVG Version: 2.1.1 Build 1)  -->
  <defs>
    <style>
      .st0 {
        fill: #fff;
      }
    </style>
  </defs>
  <path class="st0" d="M1961.61,848.85h-150.86c-31.61-42.7-82.27-70.39-139.43-70.39s-105.8,26.56-137.41,67.7l-165.2,165.32-33.74,33.62-124.52,124.52c-105.91,105.91-269.55,118.69-389.36,38.56v203.15l-137.07,115.72v-470.51l61.08-61.19,79.8-79.69c-11.77,54.92,3.7,114.43,46.4,157.13,66.91,66.91,175.29,66.91,242.2,0l339.15-339.15c21.97-21.97,46.51-39.79,72.52-53.57,3.14-1.79,6.28-3.47,9.53-4.93,2.35-1.23,4.82-2.47,7.29-3.47l3.36-1.68c.22-.11.56-.22.78-.22.45-.22.78-.22,1.12-.56,5.38-2.35,10.76-4.48,16.14-6.5,2.69-.9,5.38-1.91,8.07-2.91,2.35-.78,4.71-1.46,7.06-2.35,5.16-1.57,10.42-3.14,15.69-4.48,2.47-.67,4.93-1.23,7.4-1.79,2.58-.56,5.04-1.12,7.51-1.68,2.58-.45,5.04-.9,7.62-1.46,2.47-.45,5.04-.78,7.62-1.23,2.24-.34,4.59-.67,6.95-.9,3.25-.45,6.61-.9,9.86-1.12,2.47-.22,4.93-.45,7.4-.67,2.47-.11,4.93-.34,7.4-.45,3.81,0,7.73-.22,11.66-.34h3.7c1.79,0,3.7.11,5.49.11h1.35c1.01,0,2.02,0,2.91.22h2.13l4.15.11c.34,0,.67,0,1.12.11,1.68,0,3.36.11,5.04.22.45.22,1.01.22,1.57.22.67,0,1.46.11,2.24.11,3.47.34,6.84.67,10.42,1.01,2.47.45,4.82.67,7.29,1.01,4.03.67,8.18,1.34,12.22,2.02,3.36.78,6.61,1.46,9.98,2.13.56.11,1.23.22,1.91.34,3.59.78,7.06,1.79,10.54,2.58,6.05,1.57,12.22,3.36,18.27,5.49,3.81,1.23,7.62,2.58,11.43,4.04,1.9.67,3.81,1.34,5.72,2.13,3.81,1.57,7.51,3.14,11.32,4.71,2.35,1.12,4.82,2.24,7.17,3.36,1.68.9,3.47,1.68,5.27,2.58,2.02,1.01,4.03,2.13,6.05,3.14,2.02,1.12,3.92,2.13,5.94,3.14.11.11.22.22.34.22,24.21,13.67,47.07,30.71,67.58,51.33,33.71,33.6,57.92,73.17,72.83,115.19Z"/>
  <path class="st0" d="M1671.25,1124.86c-95.65,0-173.17-77.53-173.17-173.17,0-11.7,1.15-23.17,3.38-34.23l-125,125.01-.34.34c14.34,46.45,39.8,90.2,76.55,126.95,23.17,23.22,49.2,41.92,76.84,56.14,10.95,5.62,22.13,10.44,33.49,14.62,2.87,1.09,5.68,2.06,8.54,3.04,1.78.57,3.56,1.15,5.39,1.78,3.56,1.09,7.11,2.24,10.72,3.21.11.06.29.06.4.11,2.01.57,4.01,1.09,6.02,1.66,2.75.69,5.51,1.38,8.26,2.01l14.28,2.92c1.89.34,3.84.63,5.73.92,1.89.34,3.79.57,5.68.86.86.11,1.78.23,2.64.34,2.98.46,6.02.8,9.06,1.09,2.58.29,5.22.52,7.8.69,2.64.23,5.22.4,7.86.52,2.64.11,5.28.23,7.91.29,4.93.17,9.92.17,14.79,0,2.47-.06,4.93-.12,7.4-.23s4.93-.29,7.4-.46c13.36-.98,26.72-2.81,39.91-5.45,65.48-13.19,123.46-47.19,166.75-94.79l.52-.57c27.07-29.88,48.34-65.14,61.99-103.96h-151.44c-31.56,42.66-82.2,70.36-139.36,70.36Z"/>
  <path class="st0" d="M11.95,1011.5c2.01,10.55,4.64,20.87,7.68,31.02l-.29.29c14.34,46.45,39.85,90.2,76.61,126.95,11.3,11.3,23.33,21.39,35.83,30.55,1.33.98,2.67,1.95,4.01,2.91h0c2.81,1.99,5.62,3.97,8.49,5.85h0c4.35,2.88,8.75,5.68,13.25,8.34,4.7,2.87,9.46,5.5,14.28,7.91,4.82,2.58,9.69,4.93,14.68,7.17,2.58,1.15,5.16,2.29,7.74,3.38,2.35.97,4.64,1.89,7,2.87,4.64,1.84,9.35,3.56,14.11,5.16,2.41.8,4.82,1.61,7.23,2.35,2.29.75,4.59,1.43,6.94,2.06,2.01.57,4.01,1.15,6.08,1.66.29.06.57.17.86.23.52.12,1.03.23,1.55.4,2.18.52,4.36,1.09,6.59,1.55,2.69.63,5.39,1.26,8.14,1.78,2.29.46,4.59.92,6.88,1.32,2.52.46,5.05.86,7.63,1.26,2.41.4,4.87.75,7.34,1.03.17.06.29.06.4.06,1.61.23,3.21.4,4.82.57.52.06,1.03.11,1.55.17,5.39.57,10.84,1.03,16.28,1.26,2.01.11,4.01.23,6.08.23,3.44.17,6.88.23,10.38.23,9.92,0,19.73-.46,29.42-1.43,1.89-.17,3.73-.34,5.56-.57.92-.06,1.78-.17,2.7-.29,1.72-.23,3.5-.46,5.22-.69,3.15-.4,6.31-.92,9.46-1.49,1.89-.34,3.78-.69,5.68-1.03.34,0,.75-.11,1.09-.17,2.29-.46,4.64-.97,6.94-1.49,2.41-.52,4.82-1.09,7.22-1.66,2.41-.57,4.82-1.2,7.22-1.83,1.89-.52,3.84-1.03,5.73-1.61.63-.17,1.26-.34,1.89-.57,4.47-1.32,8.95-2.75,13.36-4.3.34-.11.69-.23,1.09-.34,2.12-.8,4.24-1.55,6.31-2.35,2.35-.86,4.7-1.78,7-2.75,2.35-.92,4.65-1.89,6.94-2.92,1.89-.8,3.79-1.66,5.68-2.52,1.66-.75,3.33-1.55,4.99-2.35,1.66-.75,3.27-1.55,4.87-2.35,1.55-.8,3.04-1.55,4.53-2.35.11-.06.23-.11.34-.17,5.1-2.7,10.09-5.51,15.02-8.49,2.35-1.43,4.7-2.87,7-4.36,2.69-1.66,5.33-3.38,7.91-5.16,1.72-1.15,3.38-2.35,5.1-3.55,2.01-1.43,4.01-2.87,5.96-4.36,2.01-1.49,3.96-2.98,5.85-4.47,2.64-2.12,5.28-4.24,7.86-6.42.86-.69,1.72-1.38,2.52-2.12,2.29-1.95,4.59-3.96,6.82-6.02,3.56-3.21,7.05-6.59,10.44-9.98.06,0,.12-.06.17-.12l124.6-124.55,212.22-212.24c66.98-66.98,178.68-69.1,245.31-1.78,42.2,42.6,57.4,101.84,45.7,156.49l127.13-127.13c-14.28-46.45-39.79-90.14-76.55-126.9-32.34-32.34-70.07-56.02-110.33-70.99-108.61-40.37-230.97-12.56-315.44,66.75l-100.63,94.56-67.89,67.89-166.23,166.18c-.52.67-1.08,1.3-1.61,1.95-29.31,27.27-95.56,77.23-173.1,59.86-.46-.11-.93-.21-1.39-.32-2.66-.62-5.34-1.35-8.03-2.14-71.53-20.9-123.79-86.93-123.79-165.21,0-12.27,1.26-24.2,3.73-35.72,6.08-28.84,19.38-54.99,37.9-76.55.06-.12.17-.29.4-.4,31.48-36.47,78.1-59.52,130.11-59.52,72.59,0,134.7,44.9,159.98,108.49l100.52-100.52c-54.53-86.36-150.81-143.7-260.5-143.7-170.03,0-307.88,137.85-307.88,307.92,0,20.3,1.95,40.14,5.74,59.3Z"/>
</svg>