<svg viewBox="0 0 232 67" fill="#fff" xmlns="http://www.w3.org/2000/svg">
<g clip-path="url(#clip0)">
<path fill-rule="evenodd" clip-rule="evenodd" d="M207.055 15.2108C206.907 14.1732 206.693 13.1401 206.29 12.1622C206.271 12.0979 206.253 12.0337 206.234 11.9694C205.775 10.8583 205.325 9.76558 204.694 8.73715C204.369 8.20915 204.035 7.68575 203.659 7.19449C203.311 6.73995 202.912 6.32215 202.568 5.86762C202.536 5.84007 202.503 5.81252 202.476 5.78498C202.309 5.56919 202.095 5.37176 201.896 5.18352C201.691 4.9861 201.506 4.77031 201.274 4.59585C201.218 4.54075 201.163 4.48565 201.107 4.43056C200.745 4.15968 200.406 3.85665 200.044 3.58577C199.706 3.33325 199.367 3.08533 199.014 2.85117C198.29 2.38287 197.553 1.98343 196.782 1.60236C195.98 1.2121 195.228 0.987129 194.295 0.670333C193.089 0.266304 188.147 -1.01465 182.408 1.56103C180.426 2.45174 180.872 2.33695 180.162 2.82363C179.805 3.06696 179.457 3.32407 179.104 3.58577C178.788 3.81992 178.505 4.10458 178.19 4.33874C178.111 4.41679 178.027 4.49943 177.953 4.57748C177.731 4.74276 177.489 4.9861 177.322 5.20189C177.276 5.24321 177.229 5.28912 177.183 5.33044C176.733 5.91812 176.204 6.43693 175.782 7.04757C175.327 7.69952 174.882 8.37444 174.524 9.08608C174.176 9.78395 173.87 10.5094 173.624 11.2486C172.515 14.6048 172.798 18.0298 173.541 20.3943C173.777 21.1519 174.056 21.8865 174.408 22.6027C174.747 23.2776 175.127 23.925 175.55 24.5494C175.759 24.8524 175.977 25.16 176.218 25.4401C176.445 25.7064 176.659 26.0094 176.923 26.2436C177.174 26.4685 177.369 26.7578 177.638 26.9644C177.763 27.0562 177.847 27.1893 177.972 27.2812C178.13 27.4005 178.278 27.5291 178.427 27.6531C178.997 28.1306 179.61 28.5621 180.25 28.9478C180.918 29.3518 181.628 29.687 182.357 29.9762C187.386 32.001 192.263 30.4583 194.156 29.3151C195.223 28.6769 196.235 28.0295 197.14 27.1756C198.031 26.34 198.824 25.362 199.46 24.3198C199.757 23.8286 200.026 23.3189 200.248 22.7909C200.494 22.1987 200.694 21.611 200.889 21.0004C201.831 17.4559 200.963 14.5451 200.555 13.5029C200.267 12.7591 199.919 12.0704 199.534 11.3633C199.177 10.7114 198.675 10.0824 198.184 9.51766C197.706 8.96212 197.167 8.46167 196.597 8.00714C195.372 7.0292 194.017 6.30379 192.518 5.85385C186.918 4.17804 182.89 7.43782 181.897 8.26425C181.832 8.33312 181.767 8.3928 181.702 8.45708C181.591 8.54431 181.47 8.6545 181.378 8.76929C181.299 8.84734 181.211 8.92998 181.127 9.00803C180.955 9.23759 180.733 9.42124 180.566 9.6508C180.399 9.86659 180.236 10.0824 180.083 10.3074C179.772 10.7481 179.48 11.2026 179.229 11.6801C178.955 12.1989 178.747 12.7315 178.575 13.2917C177.703 16.074 178.473 18.4844 179.034 19.8434C179.447 20.8534 180.167 21.7441 180.853 22.644C180.881 22.6716 180.914 22.6991 180.946 22.7267C181.081 22.9057 181.308 23.1307 181.484 23.2684C181.521 23.3097 181.563 23.3511 181.605 23.397C181.934 23.6403 182.227 23.9296 182.565 24.1683C182.886 24.3887 183.21 24.5953 183.558 24.7789C188.509 27.4005 192.764 23.824 193.511 22.9746C193.919 22.5109 194.356 22.0426 194.685 21.5192C194.875 21.2299 195.047 20.9269 195.219 20.6285C195.302 20.4861 195.376 20.3438 195.455 20.2015C195.516 20.1005 195.655 19.8709 195.655 19.8617C195.655 19.8617 195.233 19.623 195.112 19.5495C194.885 19.421 194.662 19.2878 194.439 19.1639C194.212 19.0399 193.984 18.9067 193.757 18.7736C193.613 18.6864 193.237 18.4706 193.242 18.4798C193.242 18.4844 192.978 18.9022 192.917 19.0032C192.783 19.2235 192.648 19.4531 192.514 19.6735C192.254 20.1097 191.952 20.4815 191.651 20.881C191.609 20.9177 191.572 20.9544 191.53 20.9912C191.289 21.308 190.913 21.5972 190.588 21.8268C190.221 22.0793 189.832 22.2997 189.419 22.4787C188.713 22.8001 187.892 22.9792 187.113 22.9516C185.6 22.9011 184.259 22.1206 183.22 21.0692C181.229 19.0445 180.31 15.95 181.559 13.3054C182.101 12.1484 182.876 11.097 183.86 10.266C184.352 9.84823 184.881 9.47174 185.461 9.18709C188.463 7.69034 190.936 8.17242 192.625 8.84734C193.553 9.21464 194.314 9.80691 195.112 10.3992C195.158 10.4497 195.209 10.4956 195.26 10.5461C195.465 10.6976 195.683 10.9088 195.836 11.1062C195.873 11.143 195.91 11.1751 195.943 11.2072C196.244 11.5975 196.564 11.9556 196.847 12.3642C197.121 12.7637 197.362 13.1861 197.562 13.6314C197.757 14.0676 197.961 14.5083 198.082 14.9766C198.74 17.5018 198.638 18.8195 197.956 21.0509C197.817 21.51 197.576 21.937 197.353 22.3594C197.126 22.7955 196.871 23.2317 196.574 23.6265C196.291 24.0122 195.947 24.352 195.659 24.7284C195.548 24.8432 195.427 24.9534 195.307 25.0682C194.541 25.8257 193.604 26.4042 192.671 26.9598C191.507 27.6531 187.911 28.8973 184.143 27.6944C183.419 27.4602 182.719 27.1572 182.05 26.7945C180.886 26.1609 179.828 25.2978 178.928 24.3244C178.027 23.3465 177.276 22.2308 176.742 21.0141C175.707 18.6359 175.443 15.8031 175.851 13.8747C175.981 13.2366 176.12 12.6259 176.343 12.0107C176.552 11.4322 176.789 10.8583 177.067 10.3119C177.336 9.77936 177.638 9.26514 177.99 8.78306C178.195 8.50299 178.408 8.23211 178.617 7.96123C178.788 7.74085 178.993 7.55261 179.16 7.32763C179.257 7.23581 179.35 7.13939 179.447 7.04298C179.54 6.9282 179.647 6.81801 179.763 6.73077C179.823 6.67109 179.879 6.6114 179.935 6.54712C180.255 6.30838 180.547 6.02372 180.853 5.7712C181.159 5.51868 181.498 5.28453 181.837 5.07333C186.319 2.2589 190.959 2.47928 194.073 3.53068C194.708 3.74647 195.321 4.03112 195.929 4.31119C196.541 4.59125 197.158 4.98151 197.71 5.36258C198.267 5.75284 198.764 6.20278 199.307 6.6114C199.371 6.68027 199.441 6.74914 199.506 6.81342C199.775 7.01084 200.044 7.28631 200.248 7.54801C200.286 7.58015 200.323 7.61229 200.36 7.64902C201.39 8.78765 202.248 10.0411 202.916 11.4184C203.274 12.1393 203.571 12.883 203.793 13.6544C203.909 14.04 203.979 14.4257 204.095 14.8022C204.387 15.7572 204.707 18.6772 204.011 21.3768C203.882 21.8819 203.724 22.3961 203.538 22.8782C203.348 23.3786 203.135 23.8653 202.903 24.3474C202.782 24.6045 202.629 24.8432 202.508 25.1003C202.42 25.284 202.197 25.6788 202.207 25.6926C202.211 25.7018 202.657 25.9313 202.749 25.9819C203.005 26.1058 203.251 26.2344 203.501 26.3629C203.742 26.4823 203.974 26.6154 204.216 26.7302C204.355 26.7991 204.689 26.9552 204.68 26.9644C204.675 26.9736 204.916 26.5512 204.963 26.4639C205.083 26.2344 205.204 26.0048 205.32 25.7707C205.538 25.3345 205.747 24.8891 205.942 24.4438C206.151 23.9479 206.318 23.4337 206.485 22.9241C206.633 22.465 206.726 21.9921 206.86 21.5238C206.87 21.4457 206.879 21.3722 206.898 21.2942C207.51 18.3879 207.162 15.9729 207.055 15.2108Z" />
<path fill-rule="evenodd" clip-rule="evenodd" d="M212.967 66.1277V56.8855C211.825 56.7294 210.999 56.4952 210.596 56.3621C209.663 56.0499 208.907 55.8249 208.104 55.4301C207.334 55.049 206.596 54.6496 205.877 54.1812C205.524 53.9517 205.185 53.6992 204.847 53.4466C204.485 53.1758 204.151 52.8727 203.789 52.6019C203.733 52.5514 203.677 52.4917 203.622 52.4366C203.39 52.2667 203.204 52.0463 203 51.8489C202.801 51.6607 202.582 51.4632 202.42 51.2474C202.388 51.2199 202.36 51.1923 202.327 51.1648C201.984 50.7103 201.585 50.2971 201.237 49.8425C200.861 49.3513 200.527 48.8233 200.202 48.2999C199.571 47.2714 199.121 46.1787 198.662 45.0722C198.648 45.0033 198.629 44.9437 198.606 44.8748C198.202 43.8969 197.984 42.8684 197.836 41.8262C197.729 41.0687 197.386 38.6537 197.975 35.775C197.993 35.7015 197.998 35.6234 198.012 35.5454C198.147 35.0771 198.239 34.6088 198.393 34.1451C198.56 33.6308 198.727 33.1212 198.935 32.6254C199.126 32.1754 199.339 31.7347 199.557 31.2939C199.673 31.0643 199.794 30.8348 199.91 30.6006C199.956 30.5134 200.197 30.091 200.193 30.1002C200.188 30.1048 200.518 30.2655 200.657 30.3343C200.903 30.4491 201.135 30.5823 201.367 30.7016C201.622 30.8302 201.868 30.9587 202.118 31.0827C202.216 31.1332 202.657 31.3628 202.661 31.3719C202.666 31.3857 202.443 31.7806 202.355 31.9642C202.23 32.2167 202.081 32.4601 201.961 32.7172C201.729 33.2039 201.515 33.6859 201.32 34.1864C201.135 34.6685 200.977 35.1873 200.852 35.6877C200.16 38.3874 200.476 41.3074 200.768 42.2624C200.884 42.6435 200.954 43.0291 201.065 43.4102C201.293 44.1861 201.589 44.9207 201.942 45.6461C202.615 47.0281 203.473 48.2769 204.503 49.4201C204.541 49.4523 204.578 49.4844 204.615 49.5211C204.814 49.7828 205.088 50.0537 205.357 50.2557C205.422 50.32 205.492 50.3889 205.561 50.4577C206.104 50.8618 206.601 51.3163 207.157 51.7066C207.71 52.0922 208.322 52.4779 208.935 52.758C209.547 53.038 210.16 53.3227 210.795 53.5431C213.904 54.5899 218.544 54.8148 223.026 51.9958C223.365 51.7846 223.708 51.5505 224.015 51.2979C224.321 51.0454 224.613 50.7608 224.929 50.522C224.989 50.4623 225.045 50.3981 225.105 50.3384C225.216 50.2511 225.328 50.1409 225.416 50.0262C225.513 49.9298 225.606 49.8379 225.704 49.7415C225.875 49.5211 226.079 49.3329 226.246 49.1079C226.46 48.8324 226.673 48.5662 226.873 48.2861C227.225 47.804 227.536 47.2898 227.805 46.7526C228.079 46.2017 228.321 45.6323 228.529 45.0539C228.752 44.4432 228.887 43.828 229.021 43.1898C229.425 41.2615 229.165 38.4287 228.13 36.0504C227.597 34.8337 226.85 33.7181 225.945 32.7401C225.049 31.7668 223.991 30.9082 222.827 30.2655C222.159 29.9028 221.458 29.5997 220.734 29.3656C216.966 28.1627 213.375 29.4115 212.206 30.1048C211.273 30.6557 210.341 31.2342 209.575 31.9964C209.454 32.1111 209.338 32.2213 209.222 32.3361C208.93 32.7126 208.591 33.0523 208.304 33.438C208.011 33.8374 207.756 34.269 207.529 34.7098C207.306 35.1322 207.069 35.5592 206.925 36.0183C206.248 38.2496 206.141 39.5673 206.796 42.0879C206.916 42.5562 207.116 42.9924 207.315 43.4331C207.519 43.8785 207.756 44.2963 208.03 44.6957C208.313 45.1044 208.633 45.4671 208.93 45.8573C208.962 45.8895 209.004 45.9216 209.041 45.9583C209.194 46.1558 209.413 46.3669 209.617 46.5185C209.668 46.5644 209.719 46.6149 209.765 46.6608C210.559 47.2576 211.32 47.8453 212.252 48.2172C213.946 48.8921 216.414 49.3742 219.426 47.8775C219.996 47.5928 220.53 47.2117 221.022 46.7985C222.005 45.9675 222.78 44.9207 223.323 43.7591C224.567 41.11 223.653 38.0155 221.662 35.9907C220.627 34.9393 219.282 34.1588 217.774 34.1129C216.99 34.09 216.173 34.269 215.468 34.5858C215.064 34.7649 214.67 34.9853 214.308 35.2378C213.983 35.4673 213.607 35.7566 213.366 36.0734C213.324 36.1101 213.287 36.1422 213.241 36.1836C212.939 36.583 212.637 36.9549 212.382 37.3911C212.248 37.616 212.118 37.841 211.978 38.0614C211.918 38.1578 211.649 38.5802 211.654 38.5848C211.654 38.594 211.282 38.3828 211.139 38.291C210.911 38.1532 210.684 38.0293 210.457 37.9007C210.234 37.7721 210.011 37.639 209.784 37.5104C209.658 37.4416 209.245 37.2028 209.245 37.1982C209.245 37.1891 209.38 36.9641 209.44 36.8585C209.519 36.7162 209.598 36.5738 209.682 36.4315C209.858 36.1331 210.03 35.83 210.215 35.5408C210.545 35.022 210.985 34.5491 211.389 34.0854C212.141 33.236 216.396 29.6594 221.347 32.281C221.685 32.4647 222.015 32.6713 222.34 32.8962C222.678 33.1304 222.971 33.4196 223.3 33.663C223.342 33.7089 223.379 33.7502 223.421 33.7915C223.597 33.9247 223.824 34.1542 223.954 34.3333C223.987 34.3608 224.019 34.3884 224.052 34.4159C224.738 35.3112 225.453 36.2065 225.866 37.2166C226.427 38.571 227.193 40.9814 226.325 43.7683C226.154 44.3284 225.949 44.861 225.676 45.3798C225.421 45.8573 225.128 46.3164 224.817 46.7526C224.66 46.973 224.497 47.1934 224.339 47.4092C224.168 47.6341 223.95 47.8224 223.773 48.0473C223.694 48.1254 223.606 48.208 223.523 48.2861C223.435 48.4009 223.314 48.5111 223.203 48.5983L223.008 48.7911C222.01 49.6175 217.987 52.8773 212.368 51.1923C210.865 50.747 209.515 50.0262 208.29 49.0436C207.719 48.5891 207.185 48.0841 206.703 47.5377C206.216 46.973 205.714 46.344 205.357 45.6874C204.972 44.985 204.624 44.2963 204.336 43.5525C203.933 42.5057 203.065 39.5995 204.007 36.055C204.202 35.4444 204.401 34.8521 204.647 34.2644C204.865 33.7273 205.139 33.2222 205.436 32.7355C206.072 31.6933 206.865 30.7108 207.756 29.8752C208.661 29.0212 209.677 28.3785 210.74 27.7403C212.633 26.5971 217.509 25.0498 222.539 27.0745C223.268 27.3684 223.973 27.699 224.646 28.103C225.286 28.4886 225.894 28.9202 226.469 29.4023C226.618 29.5309 226.766 29.6548 226.924 29.7742C227.049 29.8706 227.133 30.0038 227.258 30.0956C227.527 30.2976 227.727 30.5823 227.973 30.8118C228.232 31.046 228.45 31.349 228.678 31.6153C228.914 31.8999 229.128 32.203 229.337 32.5106C229.764 33.1304 230.149 33.7824 230.483 34.4573C230.835 35.1689 231.118 35.9035 231.355 36.6611C232.097 39.0255 232.381 42.4506 231.276 45.8068C231.035 46.546 230.719 47.2714 230.376 47.9693C230.019 48.6763 229.578 49.3513 229.123 50.0032C228.696 50.6184 228.172 51.1327 227.722 51.7249C227.676 51.7663 227.629 51.8122 227.583 51.8535C227.416 52.0693 227.174 52.3126 226.952 52.4779C226.873 52.5559 226.789 52.6386 226.71 52.7166C226.395 52.9554 226.112 53.2354 225.796 53.4696C225.448 53.7313 225.1 53.9884 224.743 54.2363C224.029 54.7184 224.479 54.6082 222.497 55.4943C220.252 56.4998 218.122 56.9176 216.298 57.0278V66.1506H212.967V66.1277Z" />
<path d="M7.96224 66.9999C3.26656 66.9999 0 63.1754 0 59.181C0 54.9938 3.56352 51.3713 7.96224 51.3713C9.86 51.3713 11.4283 51.8305 12.8946 52.4916V54.3694C11.2613 53.5154 9.79504 53.0839 7.96224 53.0839C4.3616 53.0839 1.96272 55.9855 1.96272 59.181C1.96272 62.3169 4.16208 65.2828 7.96224 65.2828C9.92496 65.2828 12.0918 64.3278 12.8946 63.7998V65.7465C11.1963 66.6051 9.29856 66.9999 7.96224 66.9999Z" />
<path d="M24.2254 66.6327V65.0487C23.0608 66.0358 21.46 66.9954 19.4277 66.9954C16.5602 66.9954 14.4954 65.2829 14.4954 62.7761C14.4954 61.5548 14.964 59.778 17.0613 58.621C18.495 57.8267 21.2605 57.5329 24.2254 57.5329V56.5457C24.2254 53.6441 22.4251 53.0151 20.7918 53.0151C18.959 53.0151 16.8618 53.6762 15.5579 54.3328L15.957 52.4549C17.2886 51.8948 19.024 51.3668 21.0888 51.3668C24.1558 51.3668 26.151 52.9783 26.151 56.4447V66.6327H24.2254ZM24.2254 59.149C22.1282 59.149 19.3581 59.3464 18.1285 60.0075C17.0613 60.5677 16.4627 61.5227 16.4627 62.6796C16.4627 64.461 17.929 65.3517 19.6272 65.3517C21.1909 65.3517 22.7592 64.5896 24.2254 63.3041V59.149Z" />
<path d="M35.8208 53.1849C34.1875 53.1849 32.8233 54.3052 31.8536 55.4622V66.6373H29.9187V51.6974H31.8536V53.6119C32.7213 52.6891 34.2525 51.4357 36.1873 51.4357C36.7534 51.4357 37.6211 51.6331 38.1547 51.9315V54.0389C37.4865 53.4145 36.6885 53.1849 35.8208 53.1849Z" />
<path d="M46.4185 67C45.3884 67 43.3839 66.5041 41.9873 65.1176V66.6373H40.187V44.4753H42.1218V52.8176C43.4535 51.8948 45.1889 51.3668 46.4185 51.3668C50.9842 51.3668 54.2833 55.1224 54.2833 59.1765C54.2833 63.1755 51.1142 67 46.4185 67ZM46.4185 53.0839C45.1518 53.0839 43.486 53.7083 42.1218 54.6312V63.4372C43.0545 64.3922 44.6878 65.2829 46.4185 65.2829C50.2186 65.2829 52.3159 62.3169 52.3159 59.1811C52.3159 55.9534 50.0841 53.0839 46.4185 53.0839Z" />
<path d="M63.7768 67C59.0765 67 55.8146 63.1755 55.8146 59.1857C55.8146 55.1959 59.0811 51.376 63.7768 51.376C68.4771 51.376 71.7437 55.2005 71.7437 59.1857C71.7437 63.1755 68.4771 67 63.7768 67ZM63.7768 53.0839C59.9767 53.0839 57.7773 56.0499 57.7773 59.1811C57.7773 62.3169 59.9767 65.2829 63.7768 65.2829C67.577 65.2829 69.7763 62.3169 69.7763 59.1811C69.7763 56.0499 67.577 53.0839 63.7768 53.0839Z" />
<path d="M85.3065 66.6327V57.3354C85.3065 54.4981 83.0375 53.0839 80.7732 53.0839C78.7734 53.0839 77.2097 54.1032 76.0404 55.1271V66.6327H74.1055V51.6974H76.0404V53.3135C77.1401 52.4549 78.8708 51.3668 81.0377 51.3668C84.2718 51.3668 87.2367 53.4421 87.2367 57.5007V66.6327H85.3065Z" />
<path d="M102.317 66.5271V58.4832C102.317 55.88 100.915 54.8883 99.3517 54.8883C98.085 54.8883 97.2544 55.3199 96.2197 56.1417V66.5271H91.5194V51.3622H95.9877V52.813C97.1524 51.8213 98.6186 50.8985 100.888 50.8985C103.621 50.8985 107.017 52.5468 107.017 57.7578V66.5271H102.317Z" />
<path d="M113.513 60.0672C113.578 62.0782 115.146 63.4601 117.879 63.4601C119.944 63.4601 122.677 62.5052 124.278 61.2196V65.1084C122.547 66.2287 119.68 66.9862 117.049 66.9862C111.917 66.9862 108.752 63.7861 108.752 58.9424C108.752 54.824 111.815 50.8985 116.914 50.8985C120.38 50.8985 124.644 52.5468 124.677 60.0672H113.513ZM116.877 54.3603C115.044 54.3603 113.88 55.5494 113.61 57.0967H119.939C119.675 55.1179 118.408 54.3603 116.877 54.3603Z" />
<path d="M137.901 66.5271V65.0762C136.732 66.0633 135.27 66.9908 133.001 66.9908C130.268 66.9908 126.872 65.3425 126.872 60.1315V51.3622H131.567V59.406C131.567 62.0093 132.969 63.001 134.537 63.001C135.804 63.001 136.634 62.5694 137.669 61.7476V51.3622H142.369V66.5271H137.901Z" />
<path d="M153.695 66.8255C150.531 66.8255 147.631 65.113 147.631 61.4813V54.9847H144.898V51.3576H147.631V47.3035H152.331V51.3576H157.333V54.9847H152.331V60.5906C152.331 62.5373 153.333 63.0974 154.897 63.0974C156.229 63.0974 157.328 62.5051 157.895 62.0781V66.0037C156.73 66.5271 155.431 66.8255 153.695 66.8255Z" />
<path d="M167.625 54.8883C166.46 54.8883 165.328 55.3842 164.46 56.1096V66.5271H159.76V51.3622H164.228V52.8452C165.161 51.9866 166.427 51.0959 168.158 51.0959C169.123 51.0959 169.754 51.2934 170.423 51.6928V55.6826C169.624 55.251 168.757 54.8883 167.625 54.8883Z" />
<path d="M192.685 66.8576C189.117 66.8576 187.386 64.4151 187.386 61.3849V48.0795H192.082V60.889C192.082 61.9129 192.416 62.9 194.114 62.9C194.782 62.9 195.451 62.7347 196.216 62.2389V66.0312C194.885 66.6556 193.984 66.8576 192.685 66.8576Z" />
<path d="M178.556 50.8985C176.524 50.8985 174.427 51.4586 172.692 52.2162L172.687 52.2391V55.5357C174.065 54.7873 175.731 54.2593 177.225 54.2593C178.589 54.2593 180.292 54.4567 180.357 56.6651C177.457 56.8304 174.891 57.3905 173.327 58.2812C171.327 59.4015 170.761 60.9487 170.761 62.2389C170.761 65.2048 173.225 66.7566 175.888 66.7566C177.355 66.7566 179.192 66.0634 180.589 65.1084V66.5271H184.923V56.9957C184.923 52.7442 182.357 50.8985 178.556 50.8985ZM180.357 62.4042C179.192 63.2581 177.656 63.6254 177.29 63.6254C175.559 63.6254 175.123 62.7347 175.123 62.0736C175.123 61.2517 175.527 60.6227 176.39 60.2279C177.188 59.8331 178.153 59.6035 180.352 59.4061V62.4042H180.357Z" />
<path d="M225.161 63.0928C226.056 63.0928 226.752 63.7815 226.752 64.6401C226.752 65.517 226.056 66.1965 225.151 66.1965C224.256 66.1965 223.541 65.517 223.541 64.6401C223.541 63.7815 224.256 63.0928 225.151 63.0928H225.161ZM225.137 63.405C224.451 63.405 223.936 63.9606 223.936 64.6401C223.936 65.3288 224.451 65.8797 225.156 65.8797C225.843 65.8889 226.344 65.3334 226.344 64.6401C226.344 63.9606 225.838 63.405 225.142 63.405H225.137ZM224.901 65.4435H224.539V63.9055C224.683 63.8779 224.882 63.8504 225.137 63.8504C225.434 63.8504 225.569 63.8963 225.68 63.9744C225.768 64.0386 225.833 64.1626 225.833 64.3049C225.833 64.484 225.703 64.6171 225.509 64.6722V64.6906C225.662 64.7365 225.745 64.8605 225.796 65.0671C225.843 65.3012 225.871 65.3976 225.912 65.4435H225.523C225.471 65.3884 225.448 65.2553 225.397 65.0763C225.369 64.9064 225.272 64.8283 225.072 64.8283H224.901V65.4435ZM224.91 64.5758H225.082C225.281 64.5758 225.444 64.5115 225.444 64.3508C225.444 64.2085 225.337 64.1121 225.11 64.1121C225.012 64.1121 224.947 64.1213 224.91 64.1305V64.5758Z" />
</g>
<defs>
<clipPath id="clip0">
<rect width="232" height="67" />
</clipPath>
</defs>
</svg>